<svg width="32" height="32" viewBox="0 0 32 32" fill="none" xmlns="http://www.w3.org/2000/svg">
<path d="M9.85497 12.198L12.7597 16.5044L15.2885 20.2535C15.3502 20.3451 15.4745 20.3693 15.5661 20.3075L18.3664 18.4187C18.458 18.3569 18.5823 18.3811 18.6441 18.4726L22.1173 23.6219C22.179 23.7134 22.1549 23.8378 22.0633 23.8995L20.4785 24.9685C18.4539 26.3341 15.8817 26.9619 13.7302 25.8066C11.3536 24.5304 9.42869 22.5442 7.67029 19.9372C5.9119 17.3303 4.79138 14.8015 4.49842 12.1199C4.23321 9.69228 5.7789 7.54254 7.80342 6.17698L9.38825 5.108C9.47983 5.04623 9.60413 5.07039 9.6659 5.16197L13.2509 10.477" stroke="#697278"/>
<path d="M23.332 12.667H27.9987" stroke="#697278"/>
<path d="M18.332 9.33301H27.9987" stroke="#697278"/>
</svg>
