<svg width="48" height="48" viewBox="0 0 48 48" fill="none" xmlns="http://www.w3.org/2000/svg">
<path d="M9 36H8C6.89543 36 6 35.1046 6 34V9C6 7.89543 6.89543 7 8 7H21C22.1046 7 23 7.89543 23 9V22" stroke="#06161E" stroke-width="2"/>
<path d="M11.5 12H17.5" stroke="#06161E" stroke-width="2"/>
<path d="M39 25C39.5523 25 40 25.4477 40 26L40 40C40 40.5523 39.5523 41 39 41L13 41C12.4477 41 12 40.5523 12 40L12 26C12 25.4477 12.4477 25 13 25L39 25Z" stroke="#06161E" stroke-width="2"/>
<path d="M35 30L35 36" stroke="#06161E" stroke-width="2"/>
<path d="M41 20C41 14.9649 38.5 8.50002 30 9" stroke="#06161E" stroke-width="2"/>
<path d="M32.5469 13.5L29.1193 8.82113C29.054 8.73202 29.0734 8.60687 29.1625 8.5416L33.8413 5.11404" stroke="#06161E" stroke-width="2"/>
</svg>
