<svg width="24" height="24" viewBox="0 0 24 24" fill="none" xmlns="http://www.w3.org/2000/svg">
<circle cx="12.001" cy="12" r="8.5" stroke="#697278"/>
<path d="M12.4404 13.2402H11.3506V7.46875H12.4404V13.2402ZM11.2451 15.4316C11.2451 15.2441 11.2998 15.0879 11.4092 14.9629C11.5225 14.8379 11.6904 14.7754 11.9131 14.7754C12.1357 14.7754 12.3037 14.8379 12.417 14.9629C12.5342 15.0879 12.5928 15.2441 12.5928 15.4316C12.5928 15.6113 12.5342 15.7617 12.417 15.8828C12.3037 16.0039 12.1357 16.0645 11.9131 16.0645C11.6904 16.0645 11.5225 16.0039 11.4092 15.8828C11.2998 15.7617 11.2451 15.6113 11.2451 15.4316Z" fill="#697278"/>
</svg>
