<svg width="24" height="24" viewBox="0 0 24 24" fill="none" xmlns="http://www.w3.org/2000/svg">
<circle cx="12" cy="12" r="8.5" stroke="#06161E"/>
<path d="M9.26367 15.2266L12.1582 12.1797C12.5371 11.7734 12.8262 11.4473 13.0254 11.2012C13.2285 10.9512 13.3828 10.7109 13.4883 10.4805C13.5938 10.25 13.6465 10.0078 13.6465 9.75391C13.6465 9.46875 13.5723 9.21875 13.4238 9.00391C13.2754 8.78516 13.0723 8.61523 12.8145 8.49414C12.5605 8.37305 12.2754 8.3125 11.959 8.3125C11.627 8.3125 11.3359 8.38086 11.0859 8.51758C10.8359 8.65039 10.6426 8.83594 10.5059 9.07422C10.373 9.3125 10.3066 9.58984 10.3066 9.90625H9.31055C9.30664 9.41406 9.41992 8.97852 9.65039 8.59961C9.88477 8.2207 10.207 7.92578 10.6172 7.71484C11.0273 7.50391 11.4863 7.39844 11.9941 7.39844C12.498 7.39844 12.9492 7.50195 13.3477 7.70898C13.75 7.91602 14.0645 8.19922 14.291 8.55859C14.5176 8.91797 14.6309 9.31641 14.6309 9.75391C14.627 10.0781 14.5664 10.3887 14.4492 10.6855C14.3359 10.9785 14.1406 11.3047 13.8633 11.6641C13.5859 12.0234 13.1934 12.4648 12.6855 12.9883L10.7402 14.9922V15.0625H14.7832V16H9.27539L9.26367 15.2266Z" fill="#06161E"/>
</svg>
