<svg width="24" height="24" viewBox="0 0 24 24" fill="none" xmlns="http://www.w3.org/2000/svg">
<path d="M8.39844 7.9002V3.9002C8.39844 3.78974 8.48798 3.7002 8.59844 3.7002H15.3984C15.5089 3.7002 15.5984 3.78974 15.5984 3.9002V7.9002" stroke="#06161E"/>
<path d="M8.09883 16.7004C7.61462 16.7004 4.77634 16.7004 3.99682 16.7004C3.88637 16.7004 3.79883 16.6108 3.79883 16.5004V8.10039C3.79883 7.98993 3.88837 7.90039 3.99883 7.90039H19.9988C20.1093 7.90039 20.1988 7.98993 20.1988 8.10039V16.5004C20.1988 16.6108 20.11 16.7004 19.9995 16.7004C19.5308 16.7004 18.3704 16.7004 18 16.7004" stroke="#06161E"/>
<rect x="8.39844" y="13.1001" width="7.2" height="7.2" rx="0.2" stroke="#06161E"/>
</svg>
