<svg width="143" height="54" viewBox="0 0 143 54" fill="none" xmlns="http://www.w3.org/2000/svg">
<path d="M17.2887 22.4441H25.5753L15.3446 33.7307L26.4993 46.2805H17.8358L9.20173 35.9413H9.1352V46.2805H2.44531V22.4441H9.12781V32.2794H9.19434L17.2813 22.4441H17.2887Z" fill="#D9DDE0"/>
<path d="M45.7346 46.2805H52.8681L43.177 22.4441H35.8809L25.9902 46.2805H33.0867L39.4661 29.8131H39.5326L45.742 46.2805H45.7346Z" fill="#D9DDE0"/>
<path d="M54.9512 46.2805H61.6411V38.9416H69.3585C75.1909 38.9416 78.4656 36.385 78.4656 30.5726C78.4656 24.7601 74.6438 22.4517 69.1145 22.4517H54.9512V46.288V46.2805ZM61.6411 27.4445H66.7047C69.2919 27.4445 71.5096 27.4746 71.5096 30.7756C71.5096 34.0766 69.1219 33.9713 66.7047 33.9713H61.6411V27.4445Z" fill="#D9DDE0"/>
<path d="M113.015 3.45022L93.8471 22.9479C92.8492 23.963 92.8492 25.5947 93.8471 26.6099L112.305 45.3932C113.303 46.4083 114.922 46.4234 115.913 45.4083L134.386 26.6399C135.384 25.6248 135.369 23.9706 134.371 22.963L120.459 8.78897C119.461 7.77385 117.872 7.76633 116.874 8.78145L101.151 24.7751L114.116 37.9716L127.067 24.7977L115.218 12.7442L118.692 9.21757L133.018 23.7901C133.565 24.3465 133.565 25.2564 133.018 25.8128L115.107 44.0322C114.56 44.5887 113.68 44.5887 113.133 44.0322L95.2073 25.7827C94.6602 25.2263 94.6676 24.324 95.2147 23.7675L114.279 4.3751C116.704 1.90875 120.629 1.92379 123.053 4.39014L138.732 20.3237C141.157 22.79 141.164 26.7828 138.74 29.2492L118.559 49.777C116.134 52.2434 112.15 52.2885 109.718 49.8221L89.5079 29.2567C87.0833 26.7903 87.0833 22.7825 89.5079 20.3162L105.253 4.29991C107.36 2.15689 110.605 1.88619 113.015 3.45774V3.45022Z" fill="#D9DDE0"/>
</svg>
