<svg width="32" height="32" viewBox="0 0 32 32" fill="none" xmlns="http://www.w3.org/2000/svg">
<path d="M24.5 27H5.2C5.08954 27 5 26.9105 5 26.8V17.5V12.75V10.375V9.1875V8.2C5 8.08954 5.08954 8 5.2 8H23.8C23.9105 8 24 8.08954 24 8.2V17.5V22.25V24.625" stroke="#697278"/>
<path d="M11.5 13.75L18.6422 17.3211C18.7896 17.3948 18.7896 17.6052 18.6422 17.6789L11.7894 21.1053C11.6565 21.1718 11.5 21.0751 11.5 20.9264L11.5 17.5L11.5 16.5625" stroke="#697278" stroke-linejoin="round"/>
<path d="M15.25 5C15.25 5 21.9343 5 26.8013 5C26.9118 5 27 5.08954 27 5.2V10.875V13.5" stroke="#697278"/>
</svg>
