<svg width="321" height="50" viewBox="0 0 321 50" fill="none" xmlns="http://www.w3.org/2000/svg">
<rect width="321" height="50" rx="2" fill="#09202C"/>
<path d="M33.3906 22.4531C33.3906 23.1875 33.5417 23.9323 33.8438 24.6875C34.1458 25.4375 34.5677 26.1198 35.1094 26.7344C35.6562 27.3438 36.276 27.8125 36.9688 28.1406L36.125 29.2969C35.3542 28.9271 34.6667 28.375 34.0625 27.6406C33.4583 26.901 32.9948 26.0677 32.6719 25.1406C32.349 26.1458 31.8724 27.0521 31.2422 27.8594C30.6172 28.6615 29.9115 29.2604 29.125 29.6562L28.25 28.4844C28.9427 28.151 29.5677 27.6615 30.125 27.0156C30.6875 26.3646 31.1276 25.638 31.4453 24.8359C31.763 24.0286 31.9219 23.2344 31.9219 22.4531V20.9688H28.7656V19.7344H36.4375V20.9688H33.3906V22.4531ZM37.9375 18.3281H39.4219V23.875H41.6719V25.125H39.4219V32.3281H37.9375V18.3281ZM54.805 26.3281H42.0238V25.1406H47.6956V23.6562H43.6175V18.9688H53.2269V20.1406H45.0863V22.4688H53.3206V23.6562H49.1331V25.1406H54.805V26.3281ZM43.5394 29.7812C43.5394 29.2448 43.7321 28.7865 44.1175 28.4062C44.5029 28.026 45.0602 27.737 45.7894 27.5391C46.5185 27.3359 47.3883 27.2344 48.3988 27.2344C49.404 27.2344 50.2659 27.3359 50.9847 27.5391C51.7086 27.737 52.2633 28.026 52.6488 28.4062C53.0342 28.7865 53.2269 29.2448 53.2269 29.7812C53.2269 30.3177 53.0342 30.776 52.6488 31.1562C52.2633 31.5365 51.7086 31.8255 50.9847 32.0234C50.2659 32.2266 49.404 32.3281 48.3988 32.3281C47.3883 32.3281 46.5185 32.2266 45.7894 32.0234C45.0602 31.8255 44.5029 31.5365 44.1175 31.1562C43.7321 30.776 43.5394 30.3177 43.5394 29.7812ZM45.0394 29.7812C45.0342 30.2292 45.3232 30.5729 45.9066 30.8125C46.4951 31.0521 47.3258 31.1667 48.3988 31.1562C49.456 31.1667 50.2764 31.0521 50.8597 30.8125C51.4482 30.5729 51.7425 30.2292 51.7425 29.7812C51.7425 29.3385 51.4482 28.9974 50.8597 28.7578C50.2764 28.513 49.456 28.3906 48.3988 28.3906C47.331 28.3906 46.5029 28.513 45.9144 28.7578C45.3258 28.9974 45.0342 29.3385 45.0394 29.7812ZM60.3288 22.8281C60.3288 23.5469 60.4668 24.263 60.7428 24.9766C61.0241 25.6849 61.4225 26.3281 61.9381 26.9062C62.4538 27.4844 63.0527 27.9375 63.735 28.2656L62.8913 29.3906C62.1465 29.0365 61.4902 28.5182 60.9225 27.8359C60.36 27.1536 59.9277 26.375 59.6256 25.5C59.3131 26.4427 58.8574 27.2786 58.2584 28.0078C57.6647 28.7318 56.9746 29.276 56.1881 29.6406L55.36 28.5C56.0579 28.1823 56.6725 27.724 57.2038 27.125C57.735 26.526 58.1465 25.8516 58.4381 25.1016C58.7298 24.3516 58.8756 23.5938 58.8756 22.8281V21.9062H55.7819V20.7188H58.86V18.6094H60.36V20.7188H63.4069V21.9062H60.3288V22.8281ZM64.9538 18.3281H66.4381V23.9688H68.6881V25.2188H66.4381V32.3281H64.9538V18.3281ZM81.8369 27.7344H76.1181V32.3281H74.665V27.7344H69.0244V26.5625H81.8369V27.7344ZM70.6181 18.8906H72.0869V20.7188H78.7431V18.8906H80.2275V24.9688H70.6181V18.8906ZM78.7431 23.7812V21.9062H72.0869V23.7812H78.7431ZM95.3138 26.2188H89.6575V27.7188H93.7513V32.1562H84.0794V27.7188H88.1888V26.2188H82.5481V25.0312H95.3138V26.2188ZM83.72 18.7656H94.1106V19.9688H92.0794V22.6406H94.0481V23.8438H83.7825V22.6406H85.7669V19.9688H83.72V18.7656ZM92.3138 30.9531V28.8906H85.5481V30.9531H92.3138ZM90.595 22.6406V19.9688H87.2356V22.6406H90.595ZM100.916 20.8906C100.916 21.5156 101.054 22.1172 101.33 22.6953C101.611 23.2734 102.009 23.7865 102.525 24.2344C103.046 24.6771 103.655 25.0156 104.353 25.25L103.588 26.4219C102.811 26.151 102.134 25.75 101.556 25.2188C100.983 24.6823 100.541 24.0573 100.228 23.3438C99.9208 24.1406 99.4703 24.8333 98.8766 25.4219C98.288 26.0052 97.5875 26.4479 96.775 26.75L95.9469 25.5781C96.6708 25.3281 97.2958 24.9661 97.8219 24.4922C98.3479 24.013 98.749 23.4609 99.025 22.8359C99.301 22.2057 99.4417 21.5417 99.4469 20.8438V19.1875H100.916V20.8906ZM98.1969 27.6406H99.7125V30.8281H107.666V32.0312H98.1969V27.6406ZM105.572 18.3125H107.056V22.5312H109.088V23.7969H107.056V28.6406H105.572V18.3125ZM113.439 18.9688C114.049 18.9635 114.606 19.0703 115.111 19.2891C115.616 19.5078 116.036 19.8177 116.369 20.2188C116.702 20.6146 116.919 21.0729 117.018 21.5938H119.752V18.3281H121.236V25.8438H119.752V22.8125H117.025C116.932 23.3438 116.718 23.8125 116.385 24.2188C116.051 24.625 115.629 24.9401 115.119 25.1641C114.614 25.388 114.054 25.5 113.439 25.5C112.731 25.5 112.098 25.362 111.541 25.0859C110.984 24.8047 110.549 24.4167 110.236 23.9219C109.924 23.4219 109.768 22.8542 109.768 22.2188C109.768 21.5938 109.924 21.0339 110.236 20.5391C110.549 20.0391 110.984 19.651 111.541 19.375C112.103 19.099 112.736 18.9635 113.439 18.9688ZM111.189 22.2188C111.189 22.6094 111.283 22.9609 111.471 23.2734C111.663 23.5807 111.929 23.8203 112.268 23.9922C112.611 24.1641 113.002 24.25 113.439 24.25C113.866 24.25 114.247 24.1641 114.58 23.9922C114.919 23.8203 115.182 23.5807 115.369 23.2734C115.562 22.9661 115.658 22.6146 115.658 22.2188C115.658 21.8229 115.562 21.4714 115.369 21.1641C115.182 20.8568 114.919 20.6198 114.58 20.4531C114.247 20.2865 113.866 20.2031 113.439 20.2031C113.002 20.2031 112.611 20.2865 112.268 20.4531C111.929 20.6198 111.663 20.8568 111.471 21.1641C111.283 21.4714 111.189 21.8229 111.189 22.2188ZM112.111 26.5156H113.58V28.1406H119.752V26.5156H121.236V32.1562H112.111V26.5156ZM119.752 30.9375V29.3125H113.58V30.9375H119.752ZM128.26 21.25C128.26 21.8542 128.401 22.4349 128.682 22.9922C128.968 23.5495 129.375 24.0443 129.901 24.4766C130.432 24.9036 131.052 25.2292 131.76 25.4531L130.994 26.6094C130.198 26.349 129.502 25.9557 128.908 25.4297C128.315 24.9036 127.856 24.2865 127.533 23.5781C127.216 24.349 126.752 25.0208 126.143 25.5938C125.533 26.1667 124.817 26.599 123.994 26.8906L123.229 25.7188C123.942 25.474 124.565 25.125 125.096 24.6719C125.627 24.2135 126.036 23.6875 126.323 23.0938C126.614 22.5 126.76 21.8854 126.76 21.25V20.6406H123.619V19.4375H131.338V20.6406H128.26V21.25ZM125.526 27.5938H127.026V30.8281H135.104V32.0312H125.526V27.5938ZM133.198 18.3438H134.682V28.5625H133.198V18.3438ZM142.956 27.9844C144.508 27.9844 145.698 28.1693 146.526 28.5391C147.359 28.9089 147.779 29.4479 147.784 30.1562C147.779 30.8646 147.359 31.401 146.526 31.7656C145.698 32.1354 144.508 32.3229 142.956 32.3281C141.388 32.3229 140.185 32.1354 139.346 31.7656C138.513 31.401 138.096 30.8646 138.096 30.1562C138.096 29.4479 138.513 28.9089 139.346 28.5391C140.185 28.1693 141.388 27.9844 142.956 27.9844ZM136.581 25.9844H149.346V27.1406H136.581V25.9844ZM137.237 19.4844H142.221V18.1406H143.706V19.4844H148.628V20.6094H137.237V19.4844ZM138.362 23.1562C138.357 22.5 138.747 21.9974 139.534 21.6484C140.325 21.2995 141.45 21.125 142.909 21.125C144.409 21.125 145.557 21.2995 146.354 21.6484C147.156 21.9922 147.555 22.4948 147.549 23.1562C147.555 23.8073 147.164 24.3047 146.378 24.6484C145.596 24.987 144.471 25.1562 143.003 25.1562C141.508 25.1562 140.359 24.987 139.557 24.6484C138.755 24.3099 138.357 23.8125 138.362 23.1562ZM139.612 30.1562C139.612 30.5052 139.891 30.7708 140.448 30.9531C141.005 31.1302 141.818 31.2188 142.885 31.2188C143.995 31.2188 144.838 31.1302 145.417 30.9531C145.995 30.776 146.284 30.5104 146.284 30.1562C146.284 29.8021 146 29.5339 145.432 29.3516C144.864 29.1641 144.039 29.0677 142.956 29.0625C141.862 29.0677 141.031 29.1641 140.463 29.3516C139.896 29.5339 139.612 29.8021 139.612 30.1562ZM139.94 23.1562C139.935 23.4688 140.19 23.7083 140.706 23.875C141.221 24.0365 141.971 24.1198 142.956 24.125C143.945 24.1198 144.695 24.0365 145.206 23.875C145.716 23.7135 145.971 23.474 145.971 23.1562C145.971 22.8281 145.719 22.5781 145.213 22.4062C144.713 22.2292 143.982 22.1406 143.018 22.1406C142.018 22.1406 141.253 22.2266 140.721 22.3984C140.195 22.5703 139.935 22.8229 139.94 23.1562ZM162.183 32.3281H160.761V25.1406H159.089V31.6406H157.683V18.5938H159.089V23.8906H160.761V18.3281H162.183V32.3281ZM149.901 28.375C150.896 27.8177 151.643 26.9818 152.143 25.8672C152.649 24.7526 152.901 23.474 152.901 22.0312V21.125H150.276V19.9219H156.776V21.125H154.339V22.0312C154.339 22.8906 154.448 23.7005 154.667 24.4609C154.886 25.2161 155.216 25.8906 155.659 26.4844C156.107 27.0729 156.662 27.5365 157.323 27.875L156.448 29.0156C155.776 28.651 155.206 28.1562 154.737 27.5312C154.268 26.901 153.906 26.1745 153.651 25.3516C153.406 26.2943 153.047 27.1198 152.573 27.8281C152.104 28.5312 151.521 29.0885 150.823 29.5L149.901 28.375ZM174.597 22.375H176.644V23.6094H174.597V28.4531H173.113V18.3125H174.597V22.375ZM164.222 19.5156H170.472V20.7188H165.691V24.7969H166.011C167.313 24.7969 168.381 24.7656 169.214 24.7031C170.053 24.6406 170.883 24.526 171.706 24.3594L171.878 25.5625C170.956 25.7448 170.021 25.8698 169.073 25.9375C168.126 26 166.878 26.0312 165.331 26.0312H164.222V19.5156ZM165.722 27.4062H167.206V30.8281H175.191V32.0312H165.722V27.4062ZM191.894 32.1562H182.223V28.1094H191.894V32.1562ZM180.691 25.9844H186.332V25.0312C185.082 24.9792 184.124 24.7865 183.457 24.4531C182.795 24.1198 182.467 23.6562 182.473 23.0625C182.467 22.4167 182.861 21.9271 183.652 21.5938C184.444 21.2552 185.582 21.0833 187.066 21.0781C188.556 21.0833 189.694 21.2552 190.48 21.5938C191.272 21.9271 191.665 22.4167 191.66 23.0625C191.665 23.6615 191.337 24.1276 190.676 24.4609C190.019 24.7891 189.066 24.9792 187.816 25.0312V25.9844H193.457V27.1562H180.691V25.9844ZM181.348 19.4375H186.332V18.1406H187.816V19.4375H192.738V20.5781H181.348V19.4375ZM190.457 31.0156V29.25H183.691V31.0156H190.457ZM184.051 23.0625C184.045 23.3802 184.301 23.6224 184.816 23.7891C185.337 23.9505 186.087 24.0312 187.066 24.0312C188.051 24.0312 188.798 23.9505 189.308 23.7891C189.824 23.6224 190.082 23.3802 190.082 23.0625C190.082 22.4323 189.077 22.1094 187.066 22.0938C186.077 22.1042 185.324 22.1901 184.808 22.3516C184.298 22.5078 184.045 22.7448 184.051 23.0625ZM206.309 32.3281H204.887V18.3281H206.309V32.3281ZM194.043 27.7031C194.626 27.7031 195.085 27.7005 195.418 27.6953V21.2656H194.34V20.0469H200.762V21.2656H199.684V27.5234C200.074 27.4922 200.527 27.4427 201.043 27.375L201.152 28.4531C199.46 28.7865 197.147 28.9531 194.215 28.9531L194.043 27.7031ZM196.762 27.6719C197.111 27.6667 197.626 27.6484 198.309 27.6172V21.2656H196.762V27.6719ZM200.387 23.5781H202.137V18.6406H203.543V31.6094H202.137V24.9062H200.387V23.5781ZM219.301 32.3594H217.817V18.3281H219.301V32.3594ZM208.192 24.2812C208.192 23.3021 208.346 22.4427 208.653 21.7031C208.96 20.9583 209.387 20.3854 209.934 19.9844C210.486 19.5781 211.114 19.375 211.817 19.375C212.51 19.375 213.129 19.5781 213.676 19.9844C214.223 20.3854 214.65 20.9583 214.958 21.7031C215.27 22.4427 215.426 23.3021 215.426 24.2812C215.426 25.2708 215.27 26.138 214.958 26.8828C214.65 27.6276 214.223 28.2005 213.676 28.6016C213.129 29.0026 212.51 29.2031 211.817 29.2031C211.114 29.2031 210.486 29.0026 209.934 28.6016C209.387 28.2005 208.96 27.6276 208.653 26.8828C208.346 26.138 208.192 25.2708 208.192 24.2812ZM209.629 24.2812C209.629 25.0104 209.721 25.6458 209.903 26.1875C210.085 26.7292 210.34 27.1458 210.668 27.4375C211.002 27.7292 211.385 27.875 211.817 27.875C212.244 27.875 212.622 27.7292 212.95 27.4375C213.278 27.1458 213.533 26.7292 213.715 26.1875C213.898 25.6458 213.989 25.0104 213.989 24.2812C213.989 23.5625 213.898 22.9349 213.715 22.3984C213.533 21.8568 213.278 21.4401 212.95 21.1484C212.622 20.8516 212.244 20.7031 211.817 20.7031C211.385 20.7031 211.002 20.8516 210.668 21.1484C210.34 21.4401 210.085 21.8568 209.903 22.3984C209.721 22.9349 209.629 23.5625 209.629 24.2812ZM226.372 22.4531C226.372 23.224 226.528 23.9896 226.841 24.75C227.158 25.5104 227.596 26.1901 228.153 26.7891C228.716 27.388 229.351 27.8385 230.059 28.1406L229.247 29.2969C228.429 28.9375 227.705 28.3932 227.075 27.6641C226.445 26.9349 225.966 26.099 225.637 25.1562C225.309 26.1667 224.83 27.0703 224.2 27.8672C223.57 28.6641 222.851 29.2604 222.044 29.6562L221.184 28.4844C221.877 28.1615 222.502 27.6797 223.059 27.0391C223.622 26.3932 224.062 25.6667 224.38 24.8594C224.703 24.0521 224.867 23.25 224.872 22.4531V20.9688H221.669V19.7344H229.559V20.9688H226.372V22.4531ZM231.325 18.3281H232.809V32.3281H231.325V18.3281ZM249.216 23.75H251.466V25H249.216V32.3281H247.732V18.3281H249.216V23.75ZM238.841 19.5H240.31V23.0938H244.013V19.5H245.482V29H238.841V19.5ZM244.013 27.7812V24.2656H240.31V27.7812H244.013ZM264.631 30.6562H251.818V29.4062H257.459V26.9531H253.381V22.5H261.599V20.5312H253.349V19.3125H263.068V23.6875H254.849V25.7344H263.396V26.9531H258.928V29.4062H264.631V30.6562ZM276.232 23.9062H278.404V25.1406H276.232V32.3125H274.748V18.3281H276.232V23.9062ZM265.342 28.5781C267.092 27.7031 268.443 26.6354 269.397 25.375C270.355 24.1146 270.91 22.6667 271.061 21.0312H266.045V19.7969H272.576C272.566 21.9323 272.048 23.8516 271.022 25.5547C269.996 27.2526 268.378 28.6458 266.17 29.7344L265.342 28.5781ZM290.475 32.3281H288.975V18.3281H290.475V32.3281ZM278.975 28.5781C280.808 27.7031 282.202 26.638 283.155 25.3828C284.108 24.1276 284.657 22.6719 284.803 21.0156H279.647V19.8281H286.303C286.303 21.9948 285.785 23.9193 284.748 25.6016C283.717 27.2839 282.053 28.6771 279.756 29.7812L278.975 28.5781Z" fill="#F5F6F7"/>
</svg>
