<svg width="24" height="24" viewBox="0 0 24 24" fill="none" xmlns="http://www.w3.org/2000/svg">
<path d="M7.39027 9.14888L9.56878 12.3786L11.4374 15.149C11.4992 15.2406 11.6235 15.2647 11.715 15.203L13.7323 13.8423C13.8239 13.7805 13.9482 13.8047 14.01 13.8962L16.559 17.6752C16.6207 17.7668 16.5966 17.8911 16.505 17.9529L16.1498 18.1924C14.1253 19.558 11.5087 20.22 9.47829 18.8632C8.06227 17.9169 6.8627 16.6002 5.75178 14.9532C4.64086 13.3062 3.86942 11.7008 3.52249 10.0334C3.02505 7.64257 4.61912 5.46446 6.64364 4.0989L6.99879 3.85935C7.09036 3.79759 7.21467 3.82175 7.27644 3.91332L9.93724 7.85812" stroke="#697278"/>
<path d="M17.499 9.49994H20.999" stroke="#697278"/>
<path d="M13.749 7H20.999" stroke="#697278"/>
</svg>
