<svg width="124" height="62" viewBox="0 0 124 62" fill="none" xmlns="http://www.w3.org/2000/svg">
<g clip-path="url(#clip0_2360_89)">
<path d="M13.8494 18.2322H21.2101L12.1224 28.1466L22.0309 39.1706H14.3353L6.66585 30.0885H6.60676V39.1706H0.657715V18.2322H6.59362V26.8718H6.65272L13.8362 18.2322H13.8494Z" fill="#000102"/>
<path d="M39.1161 39.1706H45.4526L36.8442 18.2322H30.3633L21.5776 39.1706H27.8813L33.5479 24.7053H33.607L39.1227 39.1706H39.1161Z" fill="#000102"/>
<path d="M47.2979 39.1706H53.2403V32.724H60.0955C65.2763 32.724 68.1852 30.4782 68.1852 25.3724C68.1852 20.2666 64.7904 18.2388 59.8788 18.2388H47.2979V39.1772V39.1706ZM53.2403 22.6246H57.7382C60.0364 22.6246 62.0063 22.651 62.0063 25.5507C62.0063 28.4504 59.8854 28.3579 57.7382 28.3579H53.2403V22.6246Z" fill="#000102"/>
<path d="M98.8759 1.54744L81.8496 18.6747C80.9631 19.5664 80.9631 20.9997 81.8496 21.8914L98.2456 38.3912C99.132 39.2829 100.57 39.2961 101.45 38.4044L117.859 21.9179C118.745 21.0262 118.732 19.573 117.846 18.6879L105.488 6.23712C104.602 5.34542 103.19 5.33882 102.304 6.23052L88.3371 20.2798L99.8543 31.8719L111.358 20.2996L100.833 9.71146L103.919 6.61362L116.644 19.4145C117.13 19.9033 117.13 20.7025 116.644 21.1913L100.734 37.1957C100.248 37.6845 99.4669 37.6845 98.981 37.1957L83.0578 21.1649C82.5719 20.6761 82.5784 19.8835 83.0643 19.3947L99.9988 2.35987C102.152 0.193371 105.639 0.206581 107.793 2.37309L121.72 16.3695C123.874 18.536 123.88 22.0434 121.727 24.2099L103.801 42.242C101.647 44.4085 98.1077 44.4482 95.9474 42.2817L77.9952 24.2165C75.8414 22.05 75.8414 18.5294 77.9952 16.3629L91.9813 2.29382C93.8527 0.411342 96.7353 0.173555 98.8759 1.55404V1.54744Z" fill="#76C4E7"/>
<path d="M6.81031 57.6388C6.27188 57.183 5.77284 56.6876 5.31977 56.1394C4.86669 55.5911 4.49898 54.9835 4.2232 54.3229C3.91458 55.0297 3.52718 55.6836 3.06754 56.2847C2.6079 56.8858 2.11543 57.3944 1.60326 57.8237L0.657715 56.6612C1.12392 56.2847 1.55073 55.8554 1.93814 55.3864C2.32555 54.9174 2.64073 54.3956 2.89025 53.8276C2.99531 53.5832 3.08723 53.3388 3.1529 53.0878C3.22513 52.8434 3.27766 52.599 3.31705 52.348C3.34989 52.1036 3.37615 51.8064 3.40242 51.4695C3.42868 51.126 3.44181 50.8288 3.44181 50.5646H1.38657V49.0652H7.14519V50.5646H4.97832C4.97832 50.6967 4.97832 50.842 4.97832 50.9939C4.97832 51.1458 4.99145 51.311 4.99802 51.4761C5.00459 51.6412 5.01772 51.7998 5.03742 51.9583C5.05055 52.1168 5.07682 52.2489 5.09651 52.3612C5.16874 52.8236 5.3132 53.3057 5.52332 53.8077C5.77941 54.3758 6.09459 54.8778 6.47543 55.3269C6.85627 55.7761 7.26338 56.1658 7.70332 56.5159L6.81031 57.6388ZM9.8111 54.2107V61.199H8.34025V47.8763H9.8111V52.7113H11.4724V54.2107H9.8111Z" fill="#000102"/>
<path d="M13.9282 48.2528H21.2627V49.7522H15.3991V50.8883C15.3991 51.0138 15.4319 51.1129 15.491 51.1855C15.5501 51.2648 15.642 51.2978 15.7536 51.2978H21.4138V52.7972H18.3145V53.6757H22.8058V55.1751H12.3589V53.6757H16.8436V52.7972H15.5435C15.0511 52.7972 14.6636 52.6717 14.3682 52.4207C14.0727 52.1697 13.9282 51.8064 13.9282 51.3242V48.2462V48.2528ZM20.6258 58.4909C20.6258 58.9334 20.547 59.3297 20.396 59.6798C20.2384 60.0167 20.0283 60.3139 19.7591 60.5715C19.6212 60.6904 19.4702 60.8027 19.3126 60.8886C19.155 60.9744 18.9777 61.0603 18.7938 61.133C18.3867 61.2651 17.9796 61.3311 17.5725 61.3311C17.3493 61.3311 17.1391 61.3179 16.9421 61.2849C16.7452 61.2518 16.5482 61.2056 16.3577 61.1528C15.9572 61.0008 15.6355 60.8159 15.3925 60.5847C15.097 60.3007 14.8869 60.0035 14.7556 59.693C14.598 59.3429 14.5258 58.9466 14.5258 58.4909C14.5258 58.0681 14.6046 57.6784 14.7556 57.3284C14.8344 57.15 14.9263 56.9849 15.0314 56.833C15.1364 56.681 15.2546 56.5489 15.3925 56.4234C15.6617 56.1658 15.9835 55.9677 16.3577 55.8158C16.7255 55.6771 17.126 55.6044 17.5725 55.6044C17.7958 55.6044 18.0059 55.6176 18.2094 55.6572C18.413 55.6903 18.61 55.7365 18.8004 55.7893C18.9908 55.862 19.1615 55.9479 19.3191 56.0403C19.4767 56.1328 19.6277 56.2385 19.7656 56.3574C20.0349 56.615 20.245 56.9122 20.4026 57.2623C20.5602 57.6322 20.6324 58.0417 20.6324 58.4909H20.6258ZM19.155 58.4909C19.155 58.2729 19.1156 58.0615 19.0302 57.8634C18.9186 57.6652 18.8004 57.5199 18.6756 57.434C18.5312 57.3218 18.3605 57.2359 18.1766 57.1764C18.0781 57.1566 17.9796 57.1434 17.8746 57.1236C17.7695 57.1104 17.671 57.1038 17.5725 57.1038C17.4609 57.1038 17.3493 57.1104 17.2573 57.1236C17.1588 57.1368 17.0669 57.1566 16.975 57.1764C16.8043 57.2359 16.6335 57.3151 16.4628 57.4208C16.2921 57.5661 16.1739 57.7049 16.1214 57.8502C16.0294 58.0285 15.9835 58.2465 15.9835 58.4909C15.9835 58.7353 16.0294 58.9202 16.1214 59.0721C16.2133 59.2439 16.3315 59.3826 16.4759 59.5015C16.6204 59.6204 16.7911 59.6996 16.9881 59.7591C17.2179 59.8053 17.4149 59.8317 17.5725 59.8317C17.7761 59.8317 17.9796 59.8053 18.17 59.7459C18.3605 59.6864 18.5246 59.6005 18.6691 59.4883C18.7938 59.4024 18.912 59.2571 19.0237 59.0589C19.1024 58.9004 19.1484 58.7088 19.1484 58.4909H19.155Z" fill="#000102"/>
<path d="M29.7793 57.6388C29.2146 57.1302 28.7155 56.5819 28.2756 56.0073C27.8356 55.4326 27.4876 54.8315 27.2316 54.2041C26.9558 54.9108 26.5881 55.5647 26.1284 56.1592C25.6688 56.7537 25.196 57.2953 24.697 57.7775L23.6792 56.5753C23.9812 56.2847 24.2702 55.9809 24.5525 55.6704C24.8349 55.36 25.0844 55.0297 25.3142 54.6796C25.5375 54.3296 25.7344 53.9663 25.9052 53.5832C26.0693 53.2001 26.1941 52.7905 26.2794 52.3546C26.3188 52.1432 26.3517 51.9385 26.3714 51.7337C26.3911 51.529 26.4042 51.3176 26.4042 51.1128H24.1388V49.6134H26.4633V47.9159H28.0326V49.6134H30.252V51.1128H28.0129C28.0129 51.5025 28.0523 51.9055 28.1246 52.3348C28.1968 52.7905 28.3216 53.2133 28.4857 53.603C28.6499 53.9927 28.8534 54.3626 29.0832 54.6994C29.3131 55.0363 29.5757 55.3534 29.8515 55.644C30.1338 55.9346 30.4228 56.1988 30.7117 56.4432L29.7793 57.6454V57.6388ZM32.7932 54.2107V61.199H31.3223V47.8763H32.7932V52.7113H34.461V54.2107H32.7932Z" fill="#000102"/>
<path d="M39.8452 61.199V57.0773H35.3735V55.578H45.8205V57.0773H41.3357V61.199H39.8386H39.8452ZM42.9904 48.2594H44.435V54.3824H38.985C38.289 54.3824 37.7505 54.2107 37.3565 53.8738C36.9626 53.537 36.7722 52.9887 36.7722 52.2423V48.2594H38.243V49.9173H42.997V48.2594H42.9904ZM42.9904 51.4233H38.2364V52.0904C38.2364 52.2291 38.2496 52.3546 38.2758 52.4537C38.3021 52.5528 38.3481 52.6386 38.4072 52.7047C38.4728 52.7707 38.5647 52.817 38.6961 52.85C38.8274 52.883 38.985 52.8896 39.1885 52.8896H42.9904V51.4299V51.4233Z" fill="#000102"/>
<path d="M55.5714 60.8951H49.9769C49.4844 60.8951 49.0905 60.7696 48.795 60.5253C48.4995 60.2809 48.3485 59.9176 48.3485 59.4354V56.1724H51.2245V55.3534H46.7397V53.8936H57.1867V55.3534H52.7019V56.1724H55.5648V60.8951H55.5714ZM47.8691 53.0548V51.6677H49.3006L49.2415 50.0824H50.7123L50.7714 51.6677H53.1484L53.2207 50.0824H54.6784L54.6193 51.6677H56.0638V53.0548H47.8691ZM48.0136 49.6399V48.2528H55.8866V49.6399H48.0136ZM54.1005 59.3892V57.6718H49.8128V58.973C49.8128 59.0985 49.8456 59.1976 49.9047 59.2703C49.9638 59.3429 50.0557 59.3826 50.1673 59.3826H54.1005V59.3892Z" fill="#000102"/>
<path d="M62.3609 49.6333C62.3609 50.023 62.4069 50.3995 62.5054 50.7694C62.6039 51.1591 62.7614 51.5223 62.9847 51.8724C63.208 52.2423 63.4903 52.5858 63.8449 52.9094C64.0156 53.0812 64.206 53.2397 64.4227 53.3916C64.6328 53.5435 64.8692 53.6889 65.1187 53.8342L64.6263 54.3758L64.1272 54.9438C63.5166 54.6136 63.011 54.2371 62.6236 53.821C62.1639 53.3784 61.8356 52.9028 61.632 52.3876C61.1658 53.5369 60.3188 54.4881 59.0843 55.2213C58.9136 55.0429 58.7495 54.8514 58.5919 54.6532C58.4999 54.5673 58.4211 54.4815 58.3423 54.389C58.2635 54.2965 58.1848 54.2041 58.106 54.1116C58.3489 53.9531 58.5787 53.7879 58.7888 53.6162C58.999 53.4445 59.1894 53.2661 59.3732 53.0746C59.5505 52.8962 59.7147 52.7113 59.8526 52.5197C59.9905 52.3282 60.1152 52.1432 60.2203 51.9517C60.3319 51.7601 60.4304 51.5686 60.5092 51.377C60.588 51.1855 60.6537 50.9873 60.7128 50.7892C60.8113 50.4127 60.8572 50.023 60.8572 49.6267V48.1801H62.374V49.6267L62.3609 49.6333ZM67.5023 60.8423H61.8816C61.3891 60.8423 60.9951 60.7234 60.6996 60.479C60.4042 60.2346 60.2531 59.8779 60.2531 59.3957V56.3045H61.724V58.94C61.724 59.2042 61.8422 59.3363 62.0786 59.3363H67.5023V60.8357V60.8423ZM67.3184 52.85V56.5225H65.8476V47.8763H67.3184V51.3506H69.0322V52.85H67.3184Z" fill="#000102"/>
<path d="M78.8884 54.8052H77.4175V52.0442H75.6906C75.6183 52.4207 75.5002 52.7641 75.336 53.0812C75.1587 53.4115 74.942 53.6757 74.6991 53.8738C74.4364 54.0984 74.1541 54.2701 73.852 54.3824C73.5565 54.5079 73.2282 54.5674 72.8605 54.5674C72.4468 54.5674 72.066 54.4881 71.7246 54.3296C71.3568 54.1711 71.0482 53.9465 70.8053 53.6624C70.5361 53.3784 70.3259 53.0416 70.1815 52.6452C70.0239 52.2886 69.9517 51.8592 69.9517 51.3572C69.9517 50.8552 70.0305 50.4391 70.1815 50.0692C70.3259 49.6795 70.5361 49.3493 70.8053 49.0652C71.0351 48.8076 71.3371 48.5897 71.7246 48.3981C72.0923 48.2396 72.4731 48.1603 72.8605 48.1603C73.1757 48.1603 73.4974 48.2198 73.8126 48.3321C74.1212 48.4576 74.4036 48.6161 74.6465 48.8142C74.8567 49.0058 75.0734 49.2502 75.2835 49.5672C75.4542 49.8579 75.5855 50.1881 75.6774 50.558H77.4175V47.8961H78.8884V54.825V54.8052ZM74.3117 51.344C74.3117 51.1062 74.2723 50.8817 74.2 50.6637C74.1606 50.558 74.1147 50.4655 74.0621 50.3731C74.0096 50.2806 73.9505 50.2013 73.8849 50.1221C73.8192 50.0428 73.7535 49.9768 73.6747 49.9239C73.5959 49.8711 73.5171 49.8182 73.4318 49.7654C73.2611 49.6795 73.0772 49.6399 72.8802 49.6399C72.6701 49.6399 72.4731 49.6795 72.3024 49.7654C72.1251 49.8513 71.9675 49.9701 71.8362 50.1221C71.7246 50.2542 71.6195 50.4325 71.5276 50.6637C71.4553 50.8817 71.4159 51.1062 71.4159 51.344C71.4159 51.6082 71.4553 51.8394 71.5276 52.0376C71.6195 52.282 71.718 52.4603 71.8362 52.5792C71.9347 52.7113 72.0923 52.8302 72.3024 52.9359C72.4731 53.0217 72.6635 53.0614 72.8802 53.0614C73.0772 53.0614 73.2611 53.0217 73.4318 52.9359C73.6025 52.85 73.7535 52.7311 73.8849 52.5792C74.0096 52.4405 74.1147 52.2555 74.2 52.0376C74.2723 51.8394 74.3117 51.6082 74.3117 51.344ZM77.4241 55.4525H78.8949V60.9083H73.3858C72.8934 60.9083 72.5059 60.7829 72.2105 60.5385C71.915 60.2941 71.7705 59.9308 71.7705 59.4486V55.4525H73.2414V56.8396H77.4306V55.4525H77.4241ZM77.4241 59.5213V58.2332H73.2348V59.1249C73.2348 59.3892 73.353 59.5213 73.5894 59.5213H77.4241Z" fill="#000102"/>
<path d="M79.9716 54.1248C80.3196 53.887 80.6545 53.6294 80.9566 53.3454C81.2652 53.0614 81.5278 52.7575 81.7577 52.4405C82.0006 52.0904 82.1976 51.6875 82.3486 51.2317C82.4996 50.776 82.6113 50.3334 82.6835 49.9041H80.5495V48.4047H86.354V49.9041H84.2134C84.2594 50.3004 84.3513 50.6967 84.4761 51.093C84.6009 51.4893 84.7716 51.8328 84.9817 52.13C85.1918 52.4339 85.461 52.7311 85.7828 53.0283C86.1045 53.3256 86.4854 53.5964 86.9253 53.8408L85.9469 54.9438C85.4085 54.6598 84.9226 54.2965 84.4892 53.8606C84.0558 53.418 83.7144 52.916 83.4583 52.348C83.1563 53.0019 82.7886 53.5634 82.3618 54.0323C81.9349 54.5079 81.4556 54.9042 80.9369 55.2213L79.9585 54.1182L79.9716 54.1248ZM89.4402 60.8423H83.7801C83.2876 60.8423 82.8936 60.7234 82.5981 60.479C82.3027 60.2346 82.1516 59.8779 82.1516 59.3957V56.3045H83.6225V58.94C83.6225 59.2042 83.7407 59.3363 83.9771 59.3363H89.4402V60.8357V60.8423ZM89.3089 56.5225H87.838V47.8763H89.3089V56.5225Z" fill="#000102"/>
<path d="M100.774 54.323V55.7695H90.3267V54.323H100.774ZM91.6859 49.9569V48.5963H94.772V47.447H96.2888V48.5963H99.4013V49.9569H98.088C98.3572 50.3466 98.4951 50.7958 98.4951 51.3176C98.4951 51.7734 98.4097 52.1565 98.239 52.4735C98.0683 52.7906 97.845 53.0482 97.5627 53.2463C97.2869 53.4445 96.9717 53.5898 96.6171 53.6757C96.2691 53.7681 95.908 53.8078 95.5403 53.8078C95.1726 53.8078 94.7917 53.7615 94.4372 53.6691C94.0891 53.5766 93.774 53.4313 93.4916 53.2265C93.2158 53.0284 92.9926 52.7707 92.8284 52.4537C92.6643 52.1366 92.5855 51.7535 92.5855 51.311C92.5855 50.7826 92.7102 50.3268 92.9663 49.9503H91.6793L91.6859 49.9569ZM98.6264 58.7749C98.6264 59.1646 98.5476 59.5146 98.3966 59.8383C98.2259 60.1487 98.0026 60.4196 97.7334 60.6441C97.4379 60.8621 97.1096 61.0338 96.7419 61.1527C96.5515 61.2122 96.3611 61.2518 96.1509 61.2848C95.9474 61.3179 95.7373 61.3311 95.514 61.3311C95.0806 61.3311 94.6801 61.2716 94.3124 61.1593C93.9315 61.0272 93.6032 60.8555 93.334 60.6507C93.0385 60.4262 92.8153 60.1554 92.6577 59.8449C92.5658 59.6864 92.5067 59.5147 92.4673 59.3363C92.4279 59.158 92.4147 58.9664 92.4147 58.7683C92.4147 58.3587 92.4935 57.9955 92.6577 57.6784C92.835 57.3283 93.0648 57.0575 93.334 56.8594C93.6032 56.648 93.9315 56.4829 94.3124 56.3508C94.6801 56.2385 95.0806 56.179 95.514 56.179C95.9474 56.179 96.3479 56.2385 96.7353 56.3508C96.9258 56.4168 97.1031 56.4961 97.2672 56.5819C97.4314 56.6744 97.589 56.7669 97.7268 56.8726C97.9698 57.0839 98.1931 57.3547 98.39 57.6916C98.5476 58.0219 98.6199 58.3786 98.6199 58.7683L98.6264 58.7749ZM97.1556 58.7749C97.1556 58.6163 97.1096 58.4512 97.0177 58.2927C96.9717 58.22 96.9126 58.154 96.847 58.0945C96.7813 58.0351 96.7091 57.9888 96.6368 57.936C96.4924 57.8634 96.3151 57.7907 96.1115 57.7246C96.013 57.7048 95.9146 57.6916 95.8095 57.6718C95.7044 57.6586 95.6059 57.652 95.5074 57.652C95.409 57.652 95.3105 57.6586 95.2185 57.6718C95.1266 57.685 95.0347 57.7048 94.9427 57.7246C94.8443 57.7511 94.7523 57.7841 94.6604 57.8105C94.5685 57.8369 94.4897 57.8766 94.4174 57.9228C94.2467 58.0285 94.1154 58.1474 94.0235 58.2795C93.925 58.4248 93.879 58.5899 93.879 58.7749C93.879 58.9598 93.925 59.1183 94.0235 59.2438C94.1351 59.4024 94.2664 59.5213 94.4043 59.6005C94.4765 59.6468 94.5619 59.6864 94.6473 59.7128C94.7392 59.7392 94.8311 59.7723 94.9296 59.7987C95.0281 59.8185 95.1266 59.8317 95.2185 59.8515C95.3105 59.8647 95.409 59.8713 95.5074 59.8713C95.6059 59.8713 95.7044 59.8647 95.8095 59.8515C95.9146 59.8383 96.013 59.8185 96.1115 59.7987C96.21 59.7723 96.302 59.7392 96.3873 59.7128C96.4727 59.6864 96.5581 59.6468 96.6368 59.6005C96.7813 59.5147 96.9126 59.3958 97.0177 59.2438C97.1096 59.1117 97.1556 58.9532 97.1556 58.7749ZM96.9717 51.3176C96.9717 50.8618 96.8338 50.5382 96.5646 50.3466C96.2954 50.1551 95.954 50.056 95.5337 50.056C95.0938 50.056 94.7458 50.1617 94.4897 50.3665C94.2336 50.5712 94.1023 50.8883 94.1023 51.3176C94.1023 51.7469 94.2336 52.064 94.5094 52.2555C94.7786 52.4471 95.12 52.5396 95.5403 52.5396C95.9802 52.5396 96.3282 52.4405 96.5843 52.2489C96.8404 52.0574 96.9717 51.7469 96.9717 51.3176Z" fill="#000102"/>
<path d="M106.972 57.6388C106.414 57.0905 105.981 56.5621 105.659 56.0601C105.344 55.5515 105.074 55.0231 104.864 54.4683C104.608 55.1222 104.313 55.7233 103.965 56.2715C103.617 56.8197 103.19 57.3415 102.671 57.8303L101.68 56.7273C102.343 56.1064 102.848 55.4392 103.196 54.7457C103.545 54.0455 103.801 53.2529 103.958 52.3678C103.971 52.2423 103.991 52.1036 104.004 51.9517C104.017 51.7998 104.03 51.6347 104.044 51.4761C104.057 51.3176 104.063 51.1525 104.076 50.9939C104.083 50.8354 104.09 50.6901 104.09 50.558H102.402V49.0586H107.399V50.558H105.626C105.626 50.8222 105.633 51.1327 105.652 51.4893C105.665 51.846 105.698 52.1432 105.751 52.3876C105.908 53.2859 106.158 54.0654 106.519 54.7193C106.874 55.3732 107.327 55.9809 107.885 56.5423L106.992 57.6652L106.972 57.6388ZM109.362 60.7696H107.944V48.015H109.362V52.7047H110.413V47.8697H111.857V61.1924H110.413V54.2041H109.362V60.763V60.7696Z" fill="#000102"/>
<path d="M113.191 48.6095H118.687V50.056H114.655V53.2859C114.655 53.5501 114.773 53.6822 115.01 53.6822H119.173V55.1288H114.799C114.307 55.1288 113.92 55.0033 113.624 54.7523C113.329 54.5013 113.184 54.138 113.184 53.6558V48.6095H113.191ZM121.674 61.0536H116.047C115.555 61.0536 115.161 60.9281 114.865 60.6838C114.57 60.4394 114.419 60.0761 114.419 59.5939V56.4895H115.889V59.1513C115.889 59.4156 116.008 59.5477 116.244 59.5477H121.681V61.047L121.674 61.0536ZM121.589 53.0614V56.7338H120.118V48.0876H121.589V51.562H123.303V53.0614H121.589Z" fill="#000102"/>
</g>
<defs>
<clipPath id="clip0_2360_89">
<rect width="122.684" height="60.6753" fill="white" transform="translate(0.657715 0.662354)"/>
</clipPath>
</defs>
</svg>
