<svg width="24" height="24" viewBox="0 0 24 24" fill="none" xmlns="http://www.w3.org/2000/svg">
<circle cx="12" cy="12" r="9" stroke="#697278"/>
<path d="M12.3359 13.2402H11.2461V7.46875H12.3359V13.2402ZM11.1406 15.4316C11.1406 15.2441 11.1953 15.0879 11.3047 14.9629C11.418 14.8379 11.5859 14.7754 11.8086 14.7754C12.0312 14.7754 12.1992 14.8379 12.3125 14.9629C12.4297 15.0879 12.4883 15.2441 12.4883 15.4316C12.4883 15.6113 12.4297 15.7617 12.3125 15.8828C12.1992 16.0039 12.0312 16.0645 11.8086 16.0645C11.5859 16.0645 11.418 16.0039 11.3047 15.8828C11.1953 15.7617 11.1406 15.6113 11.1406 15.4316Z" fill="#697278"/>
</svg>
