<svg width="48" height="48" viewBox="0 0 48 48" fill="none" xmlns="http://www.w3.org/2000/svg">
<path d="M37.0145 19.052H22.1789C22.1083 19.052 22.043 19.0148 22.007 18.9541L19.6571 14.9978C19.621 14.9372 19.5557 14.9 19.4851 14.9H6.80059C6.69013 14.9 6.60059 14.9895 6.60059 15.1V29.4439V39.4C6.60059 39.5104 6.69013 39.6 6.80059 39.6H35.271C35.3601 39.6 35.4385 39.541 35.4632 39.4553L40.127 23.2603C40.1639 23.1324 40.0679 23.0049 39.9349 23.0049H19.3961C19.3124 23.0049 19.2376 23.057 19.2085 23.1355L14.4268 36.0516" stroke="#9CA1A6" stroke-width="2"/>
<path d="M41.4001 6L32.8623 14.4" stroke="#9CA1A6" stroke-width="2"/>
<path d="M32.8626 6L34.1967 7.3125L34.8637 7.96875L35.1972 8.29688M41.4004 14.4L37.1315 10.2" stroke="#9CA1A6" stroke-width="2"/>
</svg>
