<svg width="32" height="32" viewBox="0 0 32 32" fill="none" xmlns="http://www.w3.org/2000/svg">
<path d="M25.3669 6.72085C27.4265 8.78044 24.9221 14.6241 19.7731 19.7731C14.6241 24.9221 8.78044 27.4265 6.72085 25.3669C4.66126 23.3073 7.1657 17.4636 12.3147 12.3147C17.4636 7.1657 23.3073 4.66126 25.3669 6.72085Z" stroke="#697278"/>
<path d="M18.2776 10.9089C18.7799 11.3521 19.2797 11.8212 19.7731 12.3147C24.9221 17.4636 27.4265 23.3073 25.3669 25.3669C24.0672 26.6667 21.2605 26.1488 18.0723 24.2957M14.4937 21.7648C14.3737 21.665 14.2538 21.5636 14.134 21.4607C13.5228 20.936 12.914 20.3725 12.3147 19.7731C7.1657 14.6241 4.66126 8.78044 6.72085 6.72085C8.00928 5.43242 10.7786 5.93011 13.9323 7.74399C14.1182 7.85088 14.3054 7.96234 14.4937 8.07828" stroke="#697278"/>
<path d="M17.916 14.1737V10.9265C17.916 10.816 18.0055 10.7265 18.116 10.7265H21.3632" stroke="#697278"/>
</svg>
