<svg width="40" height="40" viewBox="0 0 40 40" fill="none" xmlns="http://www.w3.org/2000/svg">
<path d="M30.845 15.8767H18.5009C18.4303 15.8767 18.365 15.8395 18.329 15.7788L16.3901 12.5145C16.3541 12.4539 16.2887 12.4167 16.2182 12.4167H5.7C5.58954 12.4167 5.5 12.5062 5.5 12.6167V24.5366V32.8C5.5 32.9105 5.58954 33 5.7 33H29.3669C29.4561 33 29.5344 32.941 29.5591 32.8553L33.4265 19.4262C33.4633 19.2983 33.3673 19.1708 33.2343 19.1708H16.1861C16.1024 19.1708 16.0276 19.2229 15.9985 19.3014L12.0218 30.043" stroke="#9CA1A6" stroke-width="1.5"/>
<path d="M34.4976 5L27.3828 12" stroke="#9CA1A6" stroke-width="1.5"/>
<path d="M27.3813 5L28.493 6.09375L29.0488 6.64062L29.3267 6.91406M34.4961 12L30.9387 8.5" stroke="#9CA1A6" stroke-width="1.5"/>
</svg>
