<svg width="24" height="24" viewBox="0 0 24 24" fill="none" xmlns="http://www.w3.org/2000/svg">
<path d="M8.39941 8.39922V4.39922C8.39941 4.28876 8.48896 4.19922 8.59941 4.19922H15.3994C15.5099 4.19922 15.5994 4.28876 15.5994 4.39922V8.39922" stroke="#06161E"/>
<path d="M8.09932 16.1984C7.62912 16.1984 5.63823 16.1984 4.99828 16.1984C4.88783 16.1984 4.79932 16.1089 4.79932 15.9984V8.59844C4.79932 8.48798 4.88886 8.39844 4.99932 8.39844H18.9993C19.1098 8.39844 19.1993 8.48798 19.1993 8.59844V15.9984C19.1993 16.1089 19.1098 16.1984 18.9993 16.1984H18.0005" stroke="#06161E"/>
<rect x="8.39941" y="12.5996" width="7.2" height="7.2" rx="0.2" stroke="#06161E"/>
</svg>
