<svg width="24" height="24" viewBox="0 0 24 24" fill="none" xmlns="http://www.w3.org/2000/svg">
<path d="M7.3893 9.14888L9.5678 12.3786L11.4364 15.149C11.4982 15.2406 11.6225 15.2647 11.7141 15.203L13.7314 13.8423C13.8229 13.7805 13.9473 13.8047 14.009 13.8962L16.558 17.6752C16.6198 17.7668 16.5956 17.8911 16.504 17.9529L16.1489 18.1924C14.1243 19.558 11.5077 20.22 9.47731 18.8632C8.06129 17.9169 6.86173 16.6002 5.75081 14.9532C4.63988 13.3062 3.86844 11.7008 3.52152 10.0334C3.02407 7.64257 4.61814 5.46446 6.64267 4.0989L6.99781 3.85935C7.08939 3.79759 7.21369 3.82175 7.27546 3.91332L9.93626 7.85812" stroke="#06161E"/>
<path d="M17.498 9.5H20.998" stroke="#06161E"/>
<path d="M13.748 7H20.998" stroke="#06161E"/>
</svg>
