<svg width="24" height="24" viewBox="0 0 24 24" fill="none" xmlns="http://www.w3.org/2000/svg">
<circle cx="12" cy="10" r="7" stroke="#697278"/>
<path d="M9.5 9.72222L10.8978 11.3375C10.9738 11.4253 11.1083 11.4301 11.1905 11.348L14.5385 8" stroke="#697278"/>
<path d="M20 14.5L21.7252 16.2252C21.8402 16.3402 21.7771 16.5371 21.6166 16.5639L19.1671 16.9721C19.0707 16.9882 19 17.0717 19 17.1694V20.0172C19 20.1953 18.7846 20.2846 18.6586 20.1586L15 16.5" stroke="#697278"/>
<path d="M5.5 13L2.27481 16.2252C2.15978 16.3402 2.22289 16.5371 2.38335 16.5639L4.83288 16.9721C4.92932 16.9882 5 17.0717 5 17.1694V20.0172C5 20.1953 5.21543 20.2846 5.34142 20.1586L9 16.5" stroke="#697278"/>
</svg>
