<svg width="32" height="32" viewBox="0 0 32 32" fill="none" xmlns="http://www.w3.org/2000/svg">
<circle cx="16" cy="16" r="12" stroke="#697278" stroke-width="1.5"/>
<path d="M15.3281 18.6484C15.3281 18.2839 15.3385 17.9792 15.3594 17.7344C15.3854 17.4844 15.4349 17.2604 15.5078 17.0625C15.5807 16.8698 15.6901 16.6875 15.8359 16.5156C15.9818 16.3438 16.1797 16.151 16.4297 15.9375C16.6068 15.7708 16.7839 15.5964 16.9609 15.4141C17.1432 15.2266 17.3099 15.0312 17.4609 14.8281C17.6068 14.6302 17.724 14.4245 17.8125 14.2109C17.9062 13.9974 17.9531 13.7786 17.9531 13.5547C17.9531 13.3047 17.9167 13.0859 17.8438 12.8984C17.776 12.7057 17.6771 12.5469 17.5469 12.4219C17.401 12.2917 17.2214 12.1953 17.0078 12.1328C16.7995 12.0651 16.5599 12.0312 16.2891 12.0312C16.0755 12.0312 15.8698 12.0599 15.6719 12.1172C15.474 12.1693 15.2969 12.2526 15.1406 12.3672C14.9844 12.4818 14.8568 12.6302 14.7578 12.8125C14.6641 12.9948 14.6172 13.2135 14.6172 13.4688H12.7422C12.7474 12.974 12.8411 12.5391 13.0234 12.1641C13.2109 11.7891 13.4635 11.4766 13.7812 11.2266C14.099 10.9714 14.4714 10.7812 14.8984 10.6562C15.3255 10.526 15.7891 10.4609 16.2891 10.4609C16.8464 10.4609 17.3438 10.5286 17.7812 10.6641C18.224 10.7943 18.5964 10.987 18.8984 11.2422C19.2005 11.4974 19.4323 11.8125 19.5938 12.1875C19.7552 12.5625 19.8359 12.9922 19.8359 13.4766C19.8359 13.8516 19.7708 14.1979 19.6406 14.5156C19.5156 14.8281 19.3516 15.1224 19.1484 15.3984C18.9505 15.6745 18.724 15.9349 18.4688 16.1797C18.2188 16.4245 17.9688 16.6589 17.7188 16.8828C17.5625 17.0339 17.4401 17.1745 17.3516 17.3047C17.263 17.4297 17.2005 17.5573 17.1641 17.6875C17.1224 17.8177 17.0964 17.9609 17.0859 18.1172C17.0755 18.2682 17.0703 18.4453 17.0703 18.6484H15.3281ZM15.0703 21.0547C15.0703 20.7474 15.1667 20.4922 15.3594 20.2891C15.5521 20.0859 15.8255 19.9844 16.1797 19.9844C16.5286 19.9844 16.8021 20.0859 17 20.2891C17.2031 20.4922 17.3047 20.7474 17.3047 21.0547C17.3047 21.3464 17.2031 21.5938 17 21.7969C16.8021 21.9948 16.5286 22.0938 16.1797 22.0938C15.8255 22.0938 15.5521 21.9948 15.3594 21.7969C15.1667 21.5938 15.0703 21.3464 15.0703 21.0547Z" fill="#697278"/>
</svg>
