<svg width="40" height="40" viewBox="0 0 40 40" fill="none" xmlns="http://www.w3.org/2000/svg">
<path d="M12.3187 15.2478L15.9496 20.6308L19.1385 25.3586C19.2003 25.4502 19.3246 25.4743 19.4162 25.4126L22.9995 22.9956C23.091 22.9338 23.2153 22.958 23.2771 23.0496L27.6745 29.569C27.7363 29.6606 27.7121 29.7849 27.6206 29.8467L24.8061 31.7451C22.7816 33.1106 20.2331 33.712 18.0173 32.6854C14.647 31.124 11.9928 28.4873 9.58787 24.9218C7.1829 21.3563 5.73253 17.9077 5.54729 14.1978C5.42551 11.7589 6.93776 9.62123 8.96228 8.25568L11.7768 6.35728C11.8683 6.29552 11.9926 6.31968 12.0544 6.41125L16.5637 13.0965" stroke="#697278" stroke-width="1.5"/>
<path d="M29.166 15.833H34.9993" stroke="#697278" stroke-width="1.5"/>
<path d="M22.916 11.6665H34.9993" stroke="#697278" stroke-width="1.5"/>
</svg>
