<svg width="32" height="32" viewBox="0 0 32 32" fill="none" xmlns="http://www.w3.org/2000/svg">
<path d="M16 8V15.9172C16 15.9702 16.0211 16.0211 16.0586 16.0586L21 21" stroke="#697278"/>
<path d="M27.2424 18.4236C27.5673 16.9202 27.5941 15.3267 27.2699 13.7227C26.0121 7.49844 19.9468 3.47237 13.7225 4.73018C7.49832 5.98799 3.47225 12.0534 4.73006 18.2776C5.03208 19.7721 5.61128 21.1399 6.40332 22.3383C6.8324 22.9875 7.32396 23.587 7.86774 24.1299C8.40561 24.6669 8.99457 25.1487 9.62474 25.5685C10.9031 26.4202 12.3509 27.0173 13.8857 27.3049C15.2976 27.5695 16.7829 27.5721 18.2775 27.2701C19.772 26.968 21.1398 26.3888 22.3381 25.5968C22.9874 25.1677 23.5868 24.6762 24.1298 24.1324" stroke="#697278"/>
</svg>
