<svg width="675" height="254" viewBox="0 0 675 254" fill="none" xmlns="http://www.w3.org/2000/svg">
<g opacity="0.8">
<path d="M81.6042 105.57H120.719L72.4273 158.659L125.081 217.69H84.1862L43.4312 169.057H43.1172V217.69H11.5391V105.57H43.0823V151.833H43.3964L81.5693 105.57H81.6042Z" fill="#F5F6F7"/>
<path d="M215.873 217.69H249.545L203.8 105.57H169.361L122.674 217.69H156.171L186.284 140.232H186.598L215.908 217.69H215.873Z" fill="#F5F6F7"/>
<path d="M259.381 217.689H290.959V183.169H327.387C354.918 183.169 370.375 171.144 370.375 143.804C370.375 116.464 352.336 105.605 326.236 105.605H259.381V217.725V217.689ZM290.959 129.09H314.861C327.073 129.09 337.541 129.232 337.541 144.759C337.541 160.286 326.271 159.791 314.861 159.791H290.959V129.09Z" fill="#F5F6F7"/>
<path d="M533.465 16.2281L442.988 107.94C438.277 112.714 438.277 120.389 442.988 125.164L530.115 213.516C534.826 218.29 542.468 218.361 547.143 213.586L634.341 125.306C639.051 120.531 638.982 112.75 634.271 108.01L568.602 41.3399C563.892 36.5651 556.39 36.5298 551.679 41.3046L477.462 116.534L538.664 178.606L599.797 116.64L543.863 59.944L560.263 43.356L627.886 111.901C630.468 114.518 630.468 118.798 627.886 121.415L543.34 207.114C540.758 209.731 536.606 209.731 534.024 207.114L449.408 121.274C446.826 118.656 446.861 114.412 449.443 111.795L539.432 20.5784C550.877 8.97745 569.405 9.04818 580.85 20.6492L654.858 95.5958C666.303 107.197 666.338 125.978 654.893 137.579L559.635 234.136C548.19 245.737 529.383 245.949 517.903 234.348L422.506 137.614C411.061 126.013 411.061 107.161 422.506 95.5604L496.828 20.2247C506.772 10.1446 522.09 8.87134 533.465 16.2634V16.2281Z" fill="#F5F6F7"/>
</g>
</svg>
