<svg width="94" height="35" viewBox="0 0 94 35" fill="none" xmlns="http://www.w3.org/2000/svg">
<path d="M11.3641 14.5469H16.8113L10.0862 21.8622L17.4187 29.9964H11.7237L6.04822 23.2951H6.00448V29.9964H1.60693V14.5469H5.99962V20.9216H6.04336L11.3593 14.5469H11.3641Z" fill="#AAC84D" fill-opacity="0.48"/>
<path d="M30.0623 29.9964H34.7514L28.3811 14.5469H23.5851L17.0835 29.9964H21.7483L25.9418 19.3231H25.9855L30.0672 29.9964H30.0623Z" fill="#AAC84D" fill-opacity="0.48"/>
<path d="M36.1211 29.9964H40.5186V25.2397H45.5916C49.4255 25.2397 51.5781 23.5827 51.5781 19.8153C51.5781 16.048 49.0659 14.5518 45.4313 14.5518H36.1211V30.0013V29.9964ZM40.5186 17.7879H43.8472C45.5479 17.7879 47.0056 17.8074 47.0056 19.9469C47.0056 22.0864 45.4361 22.0182 43.8472 22.0182H40.5186V17.7879Z" fill="#AAC84D" fill-opacity="0.48"/>
<path d="M74.2901 2.23613L61.6903 14.8735C61.0343 15.5315 61.0343 16.5891 61.6903 17.247L73.8236 29.4214C74.4796 30.0794 75.5438 30.0891 76.1949 29.4312L88.338 17.2665C88.9939 16.6086 88.9842 15.5364 88.3282 14.8833L79.1833 5.69643C78.5273 5.03849 77.4826 5.03362 76.8266 5.69156L66.4911 16.0578L75.0141 24.6111L83.5274 16.0725L75.7381 8.25998L78.0219 5.97423L87.439 15.4194C87.7986 15.78 87.7986 16.3698 87.439 16.7304L75.6652 28.5393C75.3057 28.8999 74.7274 28.8999 74.3678 28.5393L62.5844 16.7109C62.2248 16.3503 62.2296 15.7654 62.5892 15.4048L75.121 2.8356C76.7148 1.23703 79.295 1.24678 80.8889 2.84534L91.1951 13.1726C92.789 14.7712 92.7938 17.3591 91.2 18.9577L77.9345 32.2628C76.3407 33.8613 73.7216 33.8906 72.1229 32.292L58.8379 18.9625C57.2441 17.364 57.2441 14.7663 58.8379 13.1678L69.188 2.78686C70.5728 1.39787 72.706 1.22241 74.2901 2.24101V2.23613Z" fill="#AAC84D" fill-opacity="0.48"/>
</svg>
