<svg id="이미지" xmlns="http://www.w3.org/2000/svg" xmlns:xlink="http://www.w3.org/1999/xlink" width="109.918" height="127.221" viewBox="0 0 109.918 127.221">
  <defs>
    <style>
      .cls-1 {
        fill: none;
      }

      .cls-2 {
        clip-path: url(#clip-path);
      }

      .cls-3, .cls-6 {
        fill: #1d81a5;
      }

      .cls-3, .cls-4, .cls-5 {
        fill-rule: evenodd;
      }

      .cls-4 {
        fill: #fff;
      }

      .cls-5 {
        fill: #d1e6ed;
      }
    </style>
    <clipPath id="clip-path">
      <rect id="사각형_1137" data-name="사각형 1137" class="cls-1" width="109.918" height="127.221" transform="translate(0 0)"/>
    </clipPath>
  </defs>
  <g id="그룹_4947" data-name="그룹 4947" class="cls-2">
    <path id="패스_13838" data-name="패스 13838" class="cls-3" d="M83.275,7.947H7.947V115.558l2.071,2.071,12.171-12.171a3.973,3.973,0,0,1,5.618,0l12.172,12.171L52.15,105.458a3.974,3.974,0,0,1,5.619,0L69.94,117.629l12.171-12.171a3.973,3.973,0,0,1,5.618,0L99.9,117.629l2.071-2.071V26.643ZM3.973,0H84.92a3.956,3.956,0,0,1,2.826,1.181l21.008,21.008A3.955,3.955,0,0,1,109.918,25V117.2a3.957,3.957,0,0,1-1.18,2.826l-6.028,6.029a3.975,3.975,0,0,1-5.618,0L84.92,113.886,72.748,126.058a3.974,3.974,0,0,1-5.617,0L54.959,113.886,42.788,126.058a3.976,3.976,0,0,1-5.619,0L25,113.886,12.827,126.058a3.975,3.975,0,0,1-5.618,0l-6.045-6.045A3.961,3.961,0,0,1,0,117.2V3.974A3.974,3.974,0,0,1,3.973,0"/>
    <path id="패스_13839" data-name="패스 13839" class="cls-4" d="M3.973,3.974H84.92L105.946,25V117.2L99.9,123.248,84.92,108.268l-14.98,14.98-14.981-14.98-14.98,14.98L25,108.268l-14.98,14.98L3.973,117.2Z"/>
    <path id="패스_13840" data-name="패스 13840" class="cls-3" d="M80.947,25V3.974h0A3.973,3.973,0,0,1,87.73,1.165l21.008,21.008a3.973,3.973,0,0,1-2.792,6.8H84.92A3.973,3.973,0,0,1,80.947,25m7.947-11.433v7.46h7.46Z"/>
    <path id="패스_13841" data-name="패스 13841" class="cls-5" d="M84.92,3.974V25h21.025Z"/>
    <path id="패스_13842" data-name="패스 13842" class="cls-5" d="M39.979,115.8,25,100.818,10.017,115.8l-6.045-6.045v7.45l6.045,6.045L25,108.268l14.98,14.98,14.98-14.98,14.981,14.98,14.98-14.98L99.9,123.248l6.045-6.045v-7.45L99.9,115.8,84.92,100.818,69.939,115.8l-14.981-14.98Z"/>
    <rect id="사각형_1133" data-name="사각형 1133" class="cls-6" width="21.025" height="3.972" transform="translate(27.067 45.058) rotate(-44.998)"/>
    <rect id="사각형_1134" data-name="사각형 1134" class="cls-6" width="3.973" height="21.025" transform="translate(27.067 33.001) rotate(-45)"/>
    <rect id="사각형_1135" data-name="사각형 1135" class="cls-6" width="21.025" height="3.973" transform="matrix(0.707, -0.707, 0.707, 0.707, 65.175, 45.058)"/>
    <rect id="사각형_1136" data-name="사각형 1136" class="cls-6" width="3.973" height="21.025" transform="translate(65.176 33) rotate(-44.998)"/>
    <path id="패스_13843" data-name="패스 13843" class="cls-6" d="M25.129,66.246a1.987,1.987,0,0,1,0-3.973H84.788a1.987,1.987,0,1,1,0,3.973Z"/>
    <path id="패스_13844" data-name="패스 13844" class="cls-6" d="M82.8,66.246H70.48v6.161a6.161,6.161,0,0,0,12.322,0ZM68.494,62.273H86.775V72.407a10.134,10.134,0,0,1-20.267,0V62.273Z"/>
    <path id="패스_13845" data-name="패스 13845" class="cls-6" d="M74.655,64.259a1.986,1.986,0,0,1,3.973,0v5.52a1.986,1.986,0,0,1-3.973,0Z"/>
    <path id="패스_13846" data-name="패스 13846" class="cls-5" d="M76.642,71.765a1.986,1.986,0,0,1-1.986-1.986V66.246H70.481v6.161a6.161,6.161,0,0,0,12.321,0V66.246H78.628v3.533a1.986,1.986,0,0,1-1.986,1.986"/>
  </g>
</svg>
