<svg width="113" height="41" viewBox="0 0 113 41" fill="none" xmlns="http://www.w3.org/2000/svg">
<path d="M12.1446 16.2878H18.9246L10.554 25.4842L19.6806 35.71H12.5922L5.52798 27.2855H5.47355V35.71H0V16.2878H5.4675V24.3018H5.52193L12.1386 16.2878H12.1446Z" fill="white"/>
<path d="M35.4182 35.71H41.2546L33.3255 16.2878H27.3561L19.2637 35.71H25.0699L30.2894 22.2921H30.3438L35.4242 35.71H35.4182Z" fill="white"/>
<path d="M42.959 35.71H48.4325V29.7302H54.7468C59.5187 29.7302 62.198 27.647 62.198 22.911C62.198 18.1749 59.0712 16.2939 54.5472 16.2939H42.959V35.7162V35.71ZM48.4325 20.3622H52.5755C54.6923 20.3622 56.5068 20.3867 56.5068 23.0764C56.5068 25.7661 54.5532 25.6803 52.5755 25.6803H48.4325V20.3622Z" fill="white"/>
<path d="M90.4669 0.811252L74.7842 16.6983C73.9677 17.5254 73.9677 18.8549 74.7842 19.6821L89.8863 34.987C90.7028 35.8142 92.0274 35.8264 92.8378 34.9993L107.952 19.7066C108.769 18.8794 108.756 17.5315 107.94 16.7105L96.5574 5.16134C95.7409 4.33421 94.4406 4.32809 93.6241 5.15522L80.7597 18.1871L91.3681 28.9398L101.964 18.2055L92.2693 8.38409L95.1119 5.51058L106.833 17.3845C107.281 17.8379 107.281 18.5792 106.833 19.0326L92.1786 33.8781C91.731 34.3315 91.0113 34.3315 90.5637 33.8781L75.897 19.0081C75.4495 18.5547 75.4555 17.8195 75.9031 17.3661L91.5012 1.56486C93.4849 -0.44476 96.6965 -0.432506 98.6803 1.57711L111.508 14.56C113.492 16.5696 113.498 19.823 111.514 21.8326L95.003 38.559C93.0192 40.5686 89.7593 40.6054 87.7695 38.5958L71.2339 21.8387C69.2501 19.8291 69.2501 16.5635 71.2339 14.5539L84.1164 1.50359C85.8401 -0.242572 88.4953 -0.46314 90.4669 0.817379V0.811252Z" fill="#74C0E2"/>
</svg>
