<svg width="98" height="16" viewBox="0 0 98 16" xmlns="http://www.w3.org/2000/svg" xmlns:xlink="http://www.w3.org/1999/xlink">
    <defs>
        <path id="0umk6hko5a" d="M0 0h16v16H0z"/>
        <path id="m6u0w8df4c" d="M0 0h16v16H0z"/>
    </defs>
    <g fill="none" fill-rule="evenodd">
        <g transform="translate(36)">
            <mask id="k1dibdfegb" fill="#fff">
                <use xlink:href="#0umk6hko5a"/>
            </mask>
            <path d="M7.999 12.222a4.22 4.22 0 1 1 0-8.44 4.22 4.22 0 0 1 0 8.44M7.999 0A7.999 7.999 0 0 0 0 8.002C0 12.422 3.58 16 7.999 16A7.999 7.999 0 0 0 16 8.002 8.002 8.002 0 0 0 7.999 0" fill="#FFF" mask="url(#k1dibdfegb)"/>
        </g>
        <g transform="translate(66)">
            <mask id="vk72ln238d" fill="#fff">
                <use xlink:href="#m6u0w8df4c"/>
            </mask>
            <path d="M8.002 12.222a4.22 4.22 0 1 1 0-8.44c2.33 0 4.217 1.889 4.217 4.22 0 2.33-1.887 4.22-4.217 4.22M8.002 0A8.002 8.002 0 0 0 0 8.002 7.999 7.999 0 0 0 8.002 16 7.998 7.998 0 0 0 16 8.002 8 8 0 0 0 8.002 0" fill="#FFF" mask="url(#vk72ln238d)"/>
        </g>
        <path fill="#FFF" d="M58.444 1H55v14h8v-3.245h-4.556zM30.31 1l-4.552 5.811V1.003H22V15h3.758V9.191L30.31 15H35L29.252 8 35 1zM94.414 1v8.008h-.038L88.626 1H85v14h3.59V6.432h.037L94.782 15H98V1zM3.083 2.203c-.337-.6.14-1.203.692-1.203h9.402c.777 0 .985.744.671 1.25l-1.692 2.959c-.273.55-.952.529-1.252.022L9.268 2.35c-.452-.773-1.086-.79-1.552 0L6.111 5.152c-.226.425.126 1.053.692 1.053h9.4c.651 0 .968.73.704 1.196l-4.659 8.152a.864.864 0 0 1-1.506.008l-1.65-2.842c-.337-.605.12-1.307.672-1.307h3.504c.524 0 .834-.552.534-1.086L12.263 7.59c-.403-.694-1.048-.731-1.472-.03l-4.594 7.994c-.33.572-.999.618-1.36-.004L.125 7.43c-.371-.668.148-1.225.726-1.225h3.257c.805 0 1.028.71.71 1.23L3.133 10.39c-.248.45.145 1.03.692 1.023h3.4c.52.007.86-.474.56-1.013L3.083 2.203z"/>
    </g>
</svg>
