<svg width="104" height="17" viewBox="0 0 104 17" xmlns="http://www.w3.org/2000/svg" xmlns:xlink="http://www.w3.org/1999/xlink">
    <defs>
        <path id="6hzhkth91a" d="M0 0h17v17H0z"/>
        <path id="5c7vb4ncuc" d="M0 0h17v17H0z"/>
    </defs>
    <g fill="none" fill-rule="evenodd">
        <g transform="translate(38)">
            <mask id="qdl3ui0e2b" fill="#fff">
                <use xlink:href="#6hzhkth91a"/>
            </mask>
            <path d="M8.498 12.985a4.484 4.484 0 1 1 0-8.967 4.484 4.484 0 0 1 0 8.967M8.498 0A8.499 8.499 0 0 0 0 8.502 8.496 8.496 0 0 0 8.498 17 8.498 8.498 0 0 0 17 8.502 8.502 8.502 0 0 0 8.498 0" fill="#FFF" mask="url(#qdl3ui0e2b)"/>
        </g>
        <g transform="translate(70)">
            <mask id="0js1180hxd" fill="#fff">
                <use xlink:href="#5c7vb4ncuc"/>
            </mask>
            <path d="M8.502 12.985a4.484 4.484 0 1 1 0-8.967 4.481 4.481 0 0 1 4.48 4.484 4.481 4.481 0 0 1-4.48 4.483M8.502 0A8.502 8.502 0 0 0 0 8.502 8.499 8.499 0 0 0 8.502 17 8.498 8.498 0 0 0 17 8.502C17 3.806 13.194 0 8.502 0" fill="#FFF" mask="url(#0js1180hxd)"/>
        </g>
        <path fill="#FFF" d="M61.874 1H58v15h9v-3.477h-5.126zM31.949 1l-4.902 6.226V1.003H23V16h4.047V9.776L31.95 16H37L30.81 8.5 37 1zM100.138 1v8.58h-.04L93.904 1H90v15h3.866V6.82h.04l6.628 9.18H104V1zM3.264 2.284C2.908 1.643 3.413 1 3.997 1h9.956c.822 0 1.042.793.71 1.333L12.87 5.49c-.29.586-1.008.564-1.325.023L9.813 2.44c-.478-.825-1.15-.842-1.643 0l-1.7 2.988c-.239.453.134 1.123.733 1.123h9.954c.689 0 1.024.779.744 1.276l-4.933 8.695a.911.911 0 0 1-1.594.008l-1.747-3.03c-.358-.646.128-1.395.711-1.395h3.71c.556 0 .884-.589.565-1.158L12.984 8.03c-.427-.74-1.11-.78-1.558-.033L6.56 16.524c-.348.61-1.057.66-1.44-.004C4.74 15.856.133 7.86.133 7.86c-.392-.713.157-1.307.77-1.307H4.35c.853 0 1.088.757.75 1.312l-1.782 3.151c-.262.48.154 1.099.733 1.091h3.6c.55.008.91-.506.593-1.08l-4.98-8.742z"/>
    </g>
</svg>
